<svg width="455" height="504" viewBox="0 0 455 504" fill="none" xmlns="http://www.w3.org/2000/svg">
<path d="M20.6589 88.5007C6.89478 88.5007 3.16431 80.9223 3.16431 45.3422C3.16431 9.24826 8.43842 2.18362 20.9162 2.18362C34.0372 2.18362 37.2531 10.2758 37.2531 31.4698C37.2531 35.1948 36.9958 39.9473 36.8672 42.5163H24.518C24.6467 39.9473 24.7753 35.7086 24.7753 31.9836C24.7753 18.1112 24.3894 16.056 21.8167 16.056C18.9866 16.056 18.0862 18.625 18.0862 45.3422C18.0862 72.1878 18.6007 74.6283 21.688 74.6283C24.1321 74.6283 24.7753 72.3162 24.7753 59.2145C24.7753 56.774 24.6467 53.4344 24.518 51.5077H36.9958C37.1244 53.4344 37.2531 56.3887 37.2531 59.343C37.2531 81.0507 33.0081 88.5007 20.6589 88.5007Z" fill="#044799"/>
<path d="M43.6357 87.6016V0H57.5284V24.1482C57.5284 25.1758 57.1425 32.7543 56.8853 38.1491H57.1425C58.1716 31.8551 60.1012 23.506 68.9771 23.506C77.7244 23.506 79.654 30.8275 79.654 42.5163V87.6016H65.7612V44.5715C65.7612 39.6904 65.2466 37.1215 62.6739 37.1215C59.3294 37.1215 57.5284 42.5163 57.5284 50.3516V87.6016H43.6357Z" fill="#044799"/>
<path d="M95.8692 88.2438C86.9933 88.2438 85.0637 80.28 85.0637 71.2887C85.0637 59.5999 88.9228 53.3059 99.2138 53.3059H104.745V43.5439C104.745 36.7361 103.973 34.8094 101.915 34.8094C99.4711 34.8094 98.8279 37.2499 98.8279 44.1861C98.8279 45.856 98.9565 48.2965 99.0852 49.7094H86.9933C86.8647 48.8103 86.6074 45.7275 86.6074 43.4154C86.6074 29.6715 91.2383 23.506 102.816 23.506C114.907 23.506 118.638 30.5706 118.638 44.8284V87.6016H104.745C105.002 84.6473 105.388 79.7662 105.388 76.8119H105.26C104.488 84.005 102.044 88.2438 95.8692 88.2438ZM100.757 76.9404C103.073 76.9404 104.745 73.7292 104.745 64.224V61.5266H102.172C98.3133 61.5266 97.7988 64.224 97.7988 69.7473C97.7988 74.7568 98.6992 76.9404 100.757 76.9404Z" fill="#044799"/>
<path d="M124.778 87.6016V24.1482H138.671L138.028 38.1491H138.157C139.443 29.7999 142.016 23.506 150.12 23.506C159.124 23.506 160.797 31.3413 160.797 42.5163V87.6016H146.904V44.5715C146.904 39.6904 146.389 37.1215 143.817 37.1215C140.472 37.1215 138.671 42.2594 138.671 50.3516V87.6016H124.778Z" fill="#044799"/>
<path d="M186.411 77.3257C197.603 77.3257 201.977 83.3628 201.977 93.5102C201.977 106.098 196.831 114.19 184.096 114.19C169.689 114.19 165.701 105.584 165.701 98.5197C165.701 92.9964 168.145 88.6291 172.261 87.6016V87.4731C168.531 85.0326 167.888 81.1792 167.888 77.968C167.888 73.2154 169.56 69.2335 172.776 67.949C168.402 64.7378 166.344 58.3154 166.344 47.012C166.344 30.0568 171.232 23.506 182.938 23.506C186.283 23.506 189.113 24.0198 191.428 25.1758L191.557 25.0474C190.142 23.8913 188.727 21.3224 188.727 18.4965C188.727 14.2577 191.3 11.175 197.989 11.175C199.79 11.175 201.076 11.4319 201.591 11.6888V23.2491C201.205 23.1206 200.562 22.9922 199.661 22.9922C197.474 22.9922 196.445 24.1482 196.445 26.7172C196.445 28.2586 196.702 29.6715 197.088 31.3413C198.761 35.0663 199.532 40.0758 199.532 47.012C199.532 64.4809 194.516 70.518 182.938 70.518C181.523 70.518 180.237 70.3895 179.079 70.2611C178.822 70.9033 178.693 71.9309 178.693 73.2154C178.693 75.9128 179.594 77.3257 182.295 77.3257H186.411ZM182.938 33.5249C180.366 33.5249 179.465 35.1948 179.465 47.012C179.465 58.9577 180.494 60.499 182.938 60.499C185.382 60.499 186.411 58.9577 186.411 47.012C186.411 35.1948 185.511 33.5249 182.938 33.5249ZM183.71 103.658C186.669 103.658 188.084 101.731 188.084 96.5929C188.084 92.4826 187.441 89.6567 183.967 89.6567H183.067C180.366 89.6567 179.336 92.2257 179.336 96.9783C179.336 100.189 180.366 103.658 183.71 103.658Z" fill="#044799"/>
<path d="M206.941 19.781V5.78016H221.091V19.781H206.941ZM207.07 87.6016V24.1482H220.962V87.6016H207.07Z" fill="#044799"/>
<path d="M228.04 87.6016V24.1482H241.932L241.289 38.1491H241.418C242.704 29.7999 245.277 23.506 253.381 23.506C262.386 23.506 264.058 31.3413 264.058 42.5163V87.6016H250.165V44.5715C250.165 39.6904 249.651 37.1215 247.078 37.1215C243.733 37.1215 241.932 42.2594 241.932 50.3516V87.6016H228.04Z" fill="#044799"/>
<path d="M289.673 77.3257C300.864 77.3257 305.238 83.3628 305.238 93.5102C305.238 106.098 300.092 114.19 287.357 114.19C272.95 114.19 268.962 105.584 268.962 98.5197C268.962 92.9964 271.406 88.6291 275.523 87.6016V87.4731C271.792 85.0326 271.149 81.1792 271.149 77.968C271.149 73.2154 272.821 69.2335 276.037 67.949C271.663 64.7378 269.605 58.3154 269.605 47.012C269.605 30.0568 274.494 23.506 286.199 23.506C289.544 23.506 292.374 24.0198 294.689 25.1758L294.818 25.0474C293.403 23.8913 291.988 21.3224 291.988 18.4965C291.988 14.2577 294.561 11.175 301.25 11.175C303.051 11.175 304.337 11.4319 304.852 11.6888V23.2491C304.466 23.1206 303.823 22.9922 302.922 22.9922C300.735 22.9922 299.706 24.1482 299.706 26.7172C299.706 28.2586 299.964 29.6715 300.349 31.3413C302.022 35.0663 302.794 40.0758 302.794 47.012C302.794 64.4809 297.777 70.518 286.199 70.518C284.784 70.518 283.498 70.3895 282.34 70.2611C282.083 70.9033 281.954 71.9309 281.954 73.2154C281.954 75.9128 282.855 77.3257 285.556 77.3257H289.673ZM286.199 33.5249C283.627 33.5249 282.726 35.1948 282.726 47.012C282.726 58.9577 283.755 60.499 286.199 60.499C288.644 60.499 289.673 58.9577 289.673 47.012C289.673 35.1948 288.772 33.5249 286.199 33.5249ZM286.971 103.658C289.93 103.658 291.345 101.731 291.345 96.5929C291.345 92.4826 290.702 89.6567 287.229 89.6567H286.328C283.627 89.6567 282.598 92.2257 282.598 96.9783C282.598 100.189 283.627 103.658 286.971 103.658Z" fill="#044799"/>
<path d="M20.4016 210.563C9.59615 210.563 6.12296 204.398 6.12296 191.296V159.698H0.720215V146.596H4.70796C6.89478 146.596 7.92388 145.44 8.18115 141.073L8.56706 132.21H20.0157V146.596H28.1199V159.698H20.0157V189.883C20.0157 195.535 20.7876 197.462 24.1321 197.462C25.5471 197.462 26.5762 197.333 27.2194 197.205V209.664C26.1903 210.05 23.7462 210.563 20.4016 210.563Z" fill="#044799"/>
<path d="M32.3297 210.05V122.448H46.2225V146.596C46.2225 147.624 45.8366 155.202 45.5793 160.597H45.8366C46.8657 154.303 48.7952 145.954 57.6711 145.954C66.4184 145.954 68.348 153.276 68.348 164.964V210.05H54.4552V167.02C54.4552 162.138 53.9407 159.57 51.3679 159.57C48.0234 159.57 46.2225 164.964 46.2225 172.8V210.05H32.3297Z" fill="#044799"/>
<path d="M106.174 174.469V180.378H87.3933C87.3933 194.893 88.4224 199.388 91.1237 199.388C93.4392 199.388 94.0824 197.076 94.0824 186.287H106.174C106.174 203.627 101.929 210.692 90.2233 210.692C76.0732 210.692 73.5005 198.746 73.5005 178.837C73.5005 152.505 79.6751 145.954 90.6092 145.954C101.672 145.954 106.174 152.376 106.174 174.469ZM94.0824 172.157V170.488C94.0824 159.441 93.5678 157.257 91.1237 157.257C88.9369 157.257 87.7792 159.056 87.5219 172.157H94.0824Z" fill="#044799"/>
<path d="M136.005 210.05L126.743 125.531H143.337L146.296 186.287H146.81L150.541 125.531H164.82L168.807 186.287H169.322L172.409 125.531H187.074L177.683 210.05H160.06L156.844 153.789H156.33L152.599 210.05H136.005Z" fill="#044799"/>
<path d="M197.12 210.692C188.245 210.692 186.315 202.728 186.315 193.737C186.315 182.048 190.174 175.754 200.465 175.754H205.996V165.992C205.996 159.184 205.225 157.257 203.166 157.257C200.722 157.257 200.079 159.698 200.079 166.634C200.079 168.304 200.208 170.744 200.336 172.157H188.245C188.116 171.258 187.859 168.176 187.859 165.863C187.859 152.12 192.49 145.954 204.067 145.954C216.159 145.954 219.889 153.019 219.889 167.276V210.05H205.996C206.254 207.095 206.64 202.214 206.64 199.26H206.511C205.739 206.453 203.295 210.692 197.12 210.692ZM202.009 199.388C204.324 199.388 205.996 196.177 205.996 186.672V183.975H203.424C199.565 183.975 199.05 186.672 199.05 192.195C199.05 197.205 199.95 199.388 202.009 199.388Z" fill="#044799"/>
<path d="M235.352 235.354C232.393 235.354 229.049 234.583 227.505 234.069V221.738C228.405 221.995 230.335 222.252 231.879 222.252C234.837 222.252 236.124 220.069 237.281 210.05H233.422L221.845 146.596H237.41L242.298 191.553H242.555L246.672 146.596H259.535L250.66 211.463C248.087 230.987 244.871 235.354 235.352 235.354Z" fill="#044799"/>
<path d="M20.4016 326.448C9.59615 326.448 6.12296 320.283 6.12296 307.181V275.583H0.720215V262.481H4.70796C6.89478 262.481 7.92388 261.325 8.18115 256.958L8.56706 248.095H20.0157V262.481H28.1199V275.583H20.0157V305.768C20.0157 311.42 20.7876 313.347 24.1321 313.347C25.5471 313.347 26.5762 313.218 27.2194 313.09V325.549C26.1903 325.934 23.7462 326.448 20.4016 326.448Z" fill="#044799"/>
<path d="M32.3297 325.934V238.333H46.2225V262.481C46.2225 263.509 45.8366 271.087 45.5793 276.482H45.8366C46.8657 270.188 48.7952 261.839 57.6711 261.839C66.4184 261.839 68.348 269.16 68.348 280.849V325.934H54.4552V282.904C54.4552 278.023 53.9407 275.454 51.3679 275.454C48.0234 275.454 46.2225 280.849 46.2225 288.685V325.934H32.3297Z" fill="#044799"/>
<path d="M106.174 290.354V296.263H87.3933C87.3933 310.778 88.4224 315.273 91.1237 315.273C93.4392 315.273 94.0824 312.961 94.0824 302.172H106.174C106.174 319.512 101.929 326.577 90.2233 326.577C76.0732 326.577 73.5005 314.631 73.5005 294.722C73.5005 268.39 79.6751 261.839 90.6092 261.839C101.672 261.839 106.174 268.261 106.174 290.354ZM94.0824 288.042V286.372C94.0824 275.326 93.5678 273.142 91.1237 273.142C88.9369 273.142 87.7792 274.941 87.5219 288.042H94.0824Z" fill="#044799"/>
<path d="M145.653 326.834C131.889 326.834 128.158 319.255 128.158 283.675C128.158 247.581 133.432 240.516 145.91 240.516C159.031 240.516 162.247 248.609 162.247 269.803C162.247 273.528 161.99 278.28 161.861 280.849H149.512C149.64 278.28 149.769 274.041 149.769 270.316C149.769 256.444 149.383 254.389 146.81 254.389C143.98 254.389 143.08 256.958 143.08 283.675C143.08 310.521 143.594 312.961 146.682 312.961C149.126 312.961 149.769 310.649 149.769 297.547C149.769 295.107 149.64 291.767 149.512 289.841H161.99C162.118 291.767 162.247 294.722 162.247 297.676C162.247 319.384 158.002 326.834 145.653 326.834Z" fill="#044799"/>
<path d="M168.501 258.114V244.113H182.651V258.114H168.501ZM168.629 325.934V262.481H182.522V325.934H168.629Z" fill="#044799"/>
<path d="M206.322 326.448C195.517 326.448 192.043 320.283 192.043 307.181V275.583H186.641V262.481H190.628C192.815 262.481 193.844 261.325 194.102 256.958L194.487 248.095H205.936V262.481H214.04V275.583H205.936V305.768C205.936 311.42 206.708 313.347 210.052 313.347C211.467 313.347 212.497 313.218 213.14 313.09V325.549C212.111 325.934 209.667 326.448 206.322 326.448Z" fill="#044799"/>
<path d="M229.699 351.239C226.74 351.239 223.396 350.468 221.852 349.954V337.623C222.752 337.88 224.682 338.137 226.226 338.137C229.184 338.137 230.471 335.953 231.628 325.934H227.769L216.192 262.481H231.757L236.645 307.438H236.902L241.019 262.481H253.882L245.007 327.347C242.434 346.871 239.218 351.239 229.699 351.239Z" fill="#044799"/>
<path d="M3.67886 444.101V359.582H19.1153C36.0953 359.582 40.469 367.674 40.469 401.585C40.469 438.449 35.9667 444.101 20.1444 444.101H3.67886ZM18.6007 430.228H20.6589C25.1612 430.228 25.5471 428.43 25.5471 401.585C25.5471 376.152 24.7753 373.454 20.273 373.454H18.6007V430.228Z" fill="#044799"/>
<path d="M46.6415 444.101V380.648H60.5343L59.7625 395.291H60.0198C61.0489 386.299 63.3643 380.005 70.0534 380.005C76.228 380.005 79.4439 383.987 79.4439 402.741C79.4439 409.035 79.058 416.356 78.8007 420.081H66.7089C66.9662 416.485 67.3521 409.548 67.3521 404.025C67.3521 395.804 66.4516 393.621 64.908 393.621C62.5925 393.621 60.5343 398.373 60.5343 413.402V444.101H46.6415Z" fill="#044799"/>
<path d="M84.711 376.28V362.279H98.8611V376.28H84.711ZM84.8396 444.101V380.648H98.7324V444.101H84.8396Z" fill="#044799"/>
<path d="M105.809 444.101V380.648H119.702L119.059 394.648H119.188C120.474 386.299 123.047 380.005 131.151 380.005C140.155 380.005 141.828 387.841 141.828 399.016V444.101H127.935V401.071C127.935 396.19 127.42 393.621 124.848 393.621C121.503 393.621 119.702 398.759 119.702 406.851V444.101H105.809Z" fill="#044799"/>
<path d="M148.404 444.101V356.499H162.297V410.576H162.426L170.658 380.648H185.066L175.933 407.108L185.709 444.101H170.53L165.899 420.466L162.297 430.357V444.101H148.404Z" fill="#044799"/>
<path d="M202.508 444.743C189.644 444.743 186.686 437.935 186.686 421.237H198.778C198.778 432.669 199.549 434.21 201.994 434.21C204.052 434.21 204.824 432.541 204.824 427.274C204.824 423.035 204.695 421.237 203.409 419.953C202.122 418.668 199.807 417.512 197.62 416.356C195.047 414.943 191.96 413.273 189.902 410.833C187.844 408.392 186.686 403.897 186.686 399.016C186.686 386.556 191.574 380.005 202.38 380.005C214.085 380.005 217.687 384.758 217.687 403.897H205.853C205.853 392.079 205.595 390.538 203.023 390.538C200.836 390.538 200.321 392.593 200.321 397.346C200.321 402.227 200.707 404.025 201.994 405.181C203.023 406.209 205.853 407.622 208.425 408.906C210.87 410.191 213.957 411.86 215.758 414.172C217.945 416.998 218.716 421.237 218.716 425.99C218.716 438.578 215.115 444.743 202.508 444.743Z" fill="#044799"/>
<path d="M258.21 445C244.446 445 240.715 437.422 240.715 401.841C240.715 365.748 245.989 358.683 258.467 358.683C271.588 358.683 274.804 366.775 274.804 387.969C274.804 391.694 274.547 396.447 274.418 399.016H262.069C262.198 396.447 262.326 392.208 262.326 388.483C262.326 374.61 261.94 372.555 259.368 372.555C256.538 372.555 255.637 375.124 255.637 401.841C255.637 428.687 256.152 431.128 259.239 431.128C261.683 431.128 262.326 428.816 262.326 415.714C262.326 413.273 262.198 409.934 262.069 408.007H274.547C274.675 409.934 274.804 412.888 274.804 415.842C274.804 437.55 270.559 445 258.21 445Z" fill="#044799"/>
<path d="M297.781 444.743C284.788 444.743 279.772 436.137 279.772 412.374C279.772 388.868 284.788 380.005 297.781 380.005C310.644 380.005 315.661 388.868 315.661 412.374C315.661 436.137 310.644 444.743 297.781 444.743ZM297.781 432.412C300.739 432.412 301.769 429.329 301.769 412.374C301.769 395.419 300.739 392.336 297.781 392.336C294.822 392.336 293.664 395.419 293.664 412.374C293.664 429.329 294.822 432.412 297.781 432.412Z" fill="#044799"/>
<path d="M323.447 444.101V393.749H317.915V380.648H323.447V372.812C323.447 360.096 328.078 355.472 339.012 355.472C342.099 355.472 344.543 356.114 345.572 356.499V368.445C344.929 368.188 343.514 367.803 341.971 367.803C338.369 367.803 337.34 369.729 337.34 373.968V380.648H349.303V372.812C349.303 360.353 353.934 355.472 364.868 355.472C368.084 355.472 370.528 356.114 371.428 356.499V368.445C370.785 368.188 369.37 367.803 367.827 367.803C364.225 367.803 363.196 369.729 363.196 373.968V380.648H372.2V393.749H363.196V444.101H349.303V393.749H337.34V444.101H323.447Z" fill="#044799"/>
<path d="M406.285 408.521V414.429H387.504C387.504 428.944 388.533 433.44 391.234 433.44C393.55 433.44 394.193 431.128 394.193 420.338H406.285C406.285 437.678 402.04 444.743 390.334 444.743C376.184 444.743 373.611 432.797 373.611 412.888C373.611 386.556 379.786 380.005 390.72 380.005C401.783 380.005 406.285 386.428 406.285 408.521ZM394.193 406.209V404.539C394.193 393.492 393.679 391.309 391.234 391.309C389.048 391.309 387.89 393.107 387.633 406.209H394.193Z" fill="#044799"/>
<path d="M443.72 408.521V414.429H424.939C424.939 428.944 425.968 433.44 428.67 433.44C430.985 433.44 431.628 431.128 431.628 420.338H443.72C443.72 437.678 439.475 444.743 427.769 444.743C413.619 444.743 411.046 432.797 411.046 412.888C411.046 386.556 417.221 380.005 428.155 380.005C439.218 380.005 443.72 386.428 443.72 408.521ZM431.628 406.209V404.539C431.628 393.492 431.114 391.309 428.67 391.309C426.483 391.309 425.325 393.107 425.068 406.209H431.628Z" fill="#044799"/>
<path d="M7.61802 491.968V485.222C7.61802 484.502 7.50432 484.198 7.01162 483.175C5.60932 480.181 4.24492 477.111 2.80472 474.193C2.04671 472.753 1.66771 472.487 0.909715 472.374C0.417015 472.26 0.000114767 472.222 0.000114767 471.805C0.000114767 471.388 0.341215 471.161 0.758115 471.161C1.62981 471.161 2.65312 471.312 4.01752 471.312C5.91252 471.312 7.08742 471.161 7.73172 471.161C8.11072 471.161 8.48972 471.35 8.48972 471.729C8.48972 472.26 8.03492 472.222 7.42852 472.336C6.67052 472.525 6.32942 472.639 6.32942 473.207C6.32942 473.624 6.89792 474.723 8.07282 477.452C9.81622 481.583 10.3468 482.379 10.6121 482.379C10.9532 482.379 11.3322 481.508 12.8482 478.362C14.3263 475.33 14.9327 473.814 14.9327 473.321C14.9327 472.677 14.4779 472.487 13.4546 472.336C12.9619 472.26 12.545 472.222 12.545 471.843C12.545 471.388 12.8861 471.161 13.3788 471.161C14.2126 471.161 15.0464 471.312 15.9181 471.312C17.093 471.312 17.5857 471.161 18.2679 471.161C18.6469 471.161 18.8743 471.35 18.8743 471.729C18.8743 472.26 18.5711 472.26 18.1163 472.374C17.2067 472.525 16.6382 473.132 15.8423 474.686C14.4021 477.604 13.1514 480.257 11.9386 482.72C11.2943 484.009 11.2185 484.35 11.2185 485.032V492.157C11.2185 493.408 11.4838 493.901 12.5071 493.977C13.1514 494.09 13.7957 494.09 13.7957 494.621C13.7957 495.076 13.4925 495.152 12.8861 495.152C12.0523 495.152 11.029 495 9.55092 495C7.92122 495 6.70842 495.152 5.72302 495.152C5.07872 495.152 4.88922 495 4.88922 494.621C4.88922 494.204 5.34402 494.09 6.29152 493.939C7.42852 493.863 7.61802 493.522 7.61802 491.968ZM24.641 495.493H24.6031C20.2067 495.493 17.1747 491.399 17.1747 486.472C17.1747 481.621 20.093 477.452 24.641 477.452C29.2648 477.452 32.1073 481.659 32.1073 486.435C32.1073 491.399 29.0753 495.493 24.641 495.493ZM24.7168 494.431H24.7547C27.3698 494.431 28.5826 490.452 28.5826 486.851C28.5826 482.645 27.2561 478.513 24.5652 478.513C21.9501 478.513 20.6994 482.303 20.6994 486.093C20.6994 490.3 22.0638 494.431 24.7168 494.431ZM38.9068 479.196V490.111C38.9068 492.044 39.8164 493.37 41.9009 493.37C43 493.37 44.0612 492.915 44.8192 492.082C45.274 491.551 45.5393 490.945 45.5393 490.111V480.674C45.5393 479.499 45.4256 479.082 44.4402 478.968C43.6822 478.855 43.3032 478.892 43.3032 478.362C43.3032 478.021 43.5685 477.831 44.0612 477.831C44.6676 477.831 45.3877 477.907 46.032 477.907C46.7521 477.907 47.4343 477.831 48.1923 477.831C48.5713 477.831 48.7987 477.945 48.7987 478.703V480.105V491.248C48.7987 492.461 49.0261 492.878 49.8599 492.915C50.58 492.991 50.8074 493.067 50.8074 493.408C50.7695 493.711 50.5042 493.825 49.6325 494.09C48.1544 494.621 46.9795 495.076 46.3731 495.379C46.1457 495.455 45.9941 495.493 45.8425 495.493C45.7288 495.493 45.653 495.341 45.653 495.038V493.37C45.653 492.953 45.5393 492.84 45.3877 492.84C45.2361 492.84 45.0466 492.953 44.8192 493.143C44.0233 493.825 42.5831 495.303 40.2333 495.303C38.9447 495.303 37.7698 494.962 36.936 494.166C36.0643 493.332 35.6095 492.157 35.6095 490.604V480.371C35.6095 479.385 35.3821 479.044 34.4725 478.968C33.8282 478.892 33.525 478.779 33.525 478.362C33.525 478.097 33.7145 477.831 34.2451 477.831C34.9652 477.831 35.7611 477.907 36.4812 477.907C37.0118 477.907 37.8077 477.831 38.2625 477.831C38.831 477.831 38.9068 478.21 38.9068 479.196ZM54.4565 492.006V482.455C54.4565 481.015 54.1154 480.712 53.0921 480.674C52.6752 480.636 52.4857 480.598 52.4857 480.295C52.4857 479.878 52.751 479.764 53.3574 479.613C54.1533 479.347 55.2524 478.93 56.162 478.172C56.6168 477.718 56.8442 477.452 57.1474 477.452C57.3748 477.452 57.4885 477.642 57.4885 478.059C57.5264 478.551 57.5264 479.196 57.5264 479.878C57.5264 480.408 57.5264 480.787 57.678 480.787C57.9812 480.787 58.2465 479.954 58.815 479.158C59.3835 478.362 60.2173 477.49 61.5438 477.49C62.984 477.49 63.8936 478.589 63.8936 480.219C63.8936 481.583 63.2872 482.607 62.0744 482.607C61.089 482.607 60.7479 481.962 60.5963 481.242C60.4447 480.636 60.331 480.029 59.8762 480.029C59.1561 480.029 58.6634 480.787 58.2844 481.621C57.8675 482.531 57.7538 483.44 57.7538 484.198V491.665C57.7538 493.37 57.8675 493.939 59.194 494.09C60.1036 494.242 60.5584 494.318 60.5584 494.697C60.5584 495.076 60.2931 495.152 59.6488 495.152C59.1182 495.152 58.436 495 56.1241 495C54.2291 495 53.5848 495.152 53.0542 495.152C52.5994 495.152 52.2962 495.038 52.2962 494.697C52.2962 494.28 52.6373 494.204 53.2437 494.09C54.3049 493.977 54.4565 493.673 54.4565 492.006ZM75.1028 491.968V482.114C75.1028 480.825 74.9512 480.674 74.0037 480.56C73.3215 480.484 73.0941 480.446 73.0941 480.143C73.0941 479.764 73.4731 479.688 74.269 479.423C75.6334 478.93 76.6946 478.324 77.2631 477.869C77.6042 477.604 77.7937 477.452 77.9832 477.452C78.2106 477.452 78.2864 477.755 78.2864 478.097V479.613C78.2864 480.143 78.3243 480.257 78.438 480.257C78.7791 480.257 79.3855 479.613 80.2193 478.968C81.091 478.324 82.2659 477.642 83.6682 477.642C84.9568 477.642 86.1696 478.059 87.0413 478.968C87.8372 479.802 88.292 481.015 88.292 482.607V492.271C88.292 493.598 88.671 494.015 89.5427 494.128C90.2249 494.204 90.5281 494.318 90.5281 494.697C90.5281 495.038 90.2628 495.152 89.8459 495.152C89.3911 495.152 88.4057 495 86.6244 495C84.9189 495 84.3125 495.152 83.7061 495.152C83.2892 495.152 83.0997 495.038 83.0997 494.659C83.0997 494.394 83.365 494.242 83.744 494.166C84.6915 493.977 85.0326 493.673 85.0326 492.612V482.986C85.0326 482.076 84.8431 481.28 84.3883 480.674C83.8577 479.992 83.0618 479.613 82.1143 479.613C81.1289 479.613 80.1814 479.992 79.4613 480.636C78.7791 481.28 78.4001 482.038 78.4001 482.948V492.612C78.4001 493.598 78.5896 493.977 79.4992 494.166C80.3709 494.318 80.5983 494.318 80.5983 494.659C80.5983 495.038 80.333 495.152 80.0298 495.152C79.575 495.152 78.9307 495 76.6946 495C74.7617 495 74.3069 495.152 73.7005 495.152C73.2457 495.152 72.9804 495 72.9804 494.659C72.9804 494.318 73.2836 494.128 73.6626 494.09C74.9133 493.977 75.1028 493.484 75.1028 491.968ZM103.5 485.601H96.185C95.3891 485.601 95.1617 485.828 95.1617 486.51C95.1617 490.414 96.9809 493.522 99.8992 493.522C101.68 493.522 102.742 492.688 103.348 491.513C103.689 490.831 103.841 490.376 104.106 490.376C104.333 490.376 104.485 490.49 104.485 490.907C104.485 491.399 104.144 492.195 103.803 492.764C102.893 494.394 101.112 495.493 98.8759 495.493C94.3658 495.493 91.637 491.778 91.637 486.814C91.637 480.598 95.1996 477.452 98.9896 477.452C102.325 477.452 104.561 479.878 104.561 483.592C104.561 485.449 104.485 485.601 103.5 485.601ZM95.2754 483.554V483.592C95.2754 484.236 95.3891 484.426 96.6777 484.426C97.3978 484.426 98.08 484.388 98.6485 484.312C99.8234 484.161 100.733 483.895 101.074 483.592C101.453 483.327 101.643 482.91 101.643 482.038C101.643 480.067 100.657 478.551 98.9138 478.551C96.7156 478.551 95.2754 481.129 95.2754 483.554ZM116.832 485.26L113.762 494.356C113.572 494.924 113.459 495.379 112.587 495.379C111.867 495.379 111.753 494.886 111.564 494.394L106.978 480.674C106.561 479.461 106.22 479.006 105.651 478.892C105.196 478.817 104.931 478.665 104.931 478.324C104.931 477.983 105.196 477.831 105.613 477.831C106.523 477.831 107.432 477.945 108.342 477.945C109.252 477.945 110.161 477.831 111.033 477.831C111.526 477.831 111.791 477.945 111.791 478.286C111.791 478.665 111.374 478.741 110.995 478.817C110.578 478.892 110.085 479.12 110.085 479.802C110.085 480.219 110.237 480.674 110.54 481.583L113.193 489.163C113.383 489.732 113.534 490.111 113.724 490.111C113.951 490.111 114.141 489.618 114.33 489.012L115.922 484.161C116.074 483.706 116.225 483.251 116.225 482.91C116.225 482.493 115.922 481.697 115.391 480.219C115.088 479.423 114.633 479.044 114.141 478.93C113.686 478.817 113.307 478.741 113.307 478.362C113.307 478.021 113.61 477.831 114.103 477.831C114.975 477.831 115.96 477.945 116.87 477.945C117.855 477.945 118.84 477.831 119.56 477.831C120.167 477.831 120.356 477.983 120.356 478.362C120.356 478.741 119.939 478.817 119.523 478.892C119.068 478.968 118.575 479.158 118.575 479.688C118.575 479.992 118.765 480.598 118.916 481.129L121.38 488.974C121.569 489.467 121.721 490.035 121.91 490.035C122.138 490.035 122.327 489.239 122.517 488.633L124.715 481.356C124.904 480.825 124.98 480.181 124.98 479.954C124.98 479.234 124.45 479.006 123.919 478.93C123.426 478.855 122.858 478.779 122.858 478.362C122.858 478.021 123.085 477.831 123.464 477.831C124.108 477.831 124.791 477.945 125.549 477.945C126.42 477.945 127.103 477.831 127.633 477.831C127.974 477.831 128.202 477.945 128.202 478.362C128.202 478.779 127.861 478.855 127.482 478.968C126.951 479.082 126.534 479.499 126.231 480.408L121.91 494.356C121.759 494.924 121.645 495.379 120.887 495.379C120.091 495.379 119.939 494.886 119.788 494.356L116.907 485.26H116.832ZM150.546 469.038V492.006C150.546 493.029 150.622 493.37 150.925 493.37C151.759 493.37 152.024 491.778 152.441 491.778C152.707 491.778 152.782 492.044 152.782 492.536C152.782 493.37 152.707 493.787 152.176 494.052C151.873 494.242 151.115 494.469 150.584 494.697C149.675 495.038 148.651 495.455 148.234 495.455C147.893 495.455 147.78 495.152 147.704 494.697C147.59 493.825 147.552 493.408 147.325 493.408C147.097 493.408 146.718 493.901 146.074 494.431C145.392 494.962 144.444 495.493 143.118 495.493C139.176 495.493 136.978 491.816 136.978 486.7C136.978 481.621 140.01 477.452 143.762 477.452C144.786 477.452 145.695 477.755 146.377 478.134C146.718 478.324 146.946 478.513 147.06 478.513C147.249 478.513 147.287 478.362 147.287 478.172V472.222C147.287 471.312 147.022 471.123 146.112 470.971C145.468 470.858 145.24 470.82 145.24 470.479C145.24 470.138 145.43 470.062 146.036 469.91C147.476 469.455 148.538 469.076 149.334 468.735C149.864 468.508 150.092 468.356 150.319 468.356C150.508 468.356 150.546 468.546 150.546 469.038ZM140.503 486.056V486.093C140.503 490.907 141.829 493.522 144.444 493.522C145.165 493.522 145.96 493.332 146.529 492.84C146.984 492.461 147.287 491.968 147.287 491.134V482.19C147.287 481.166 147.06 480.295 146.567 479.688C146.036 479.044 145.278 478.703 144.444 478.703C142.701 478.703 140.503 480.636 140.503 486.056ZM162.953 483.213V481.015C162.953 479.234 162.536 478.513 161.361 478.513C159.542 478.513 158.708 479.878 158.102 481.735C157.837 482.531 157.382 483.175 156.813 483.554C156.397 483.857 155.866 484.085 155.297 484.085C154.577 484.085 154.312 483.782 154.312 483.099C154.312 480.901 157.571 477.452 162.271 477.452C163.673 477.452 164.772 477.642 165.417 478.21C166.061 478.703 166.213 479.423 166.213 480.598V491.437C166.213 492.385 166.516 493.067 167.274 493.067C167.88 493.067 168.221 492.726 168.411 492.385C168.562 492.044 168.714 491.665 168.941 491.665C169.169 491.665 169.245 491.854 169.245 492.309C169.245 493.143 167.956 495.379 165.758 495.379C164.166 495.379 163.711 494.09 163.408 493.332C163.294 493.029 163.181 492.802 162.991 492.802C162.688 492.802 162.082 493.522 161.134 494.204C160.262 494.886 159.087 495.493 157.571 495.493C155.79 495.493 154.388 494.28 154.388 492.082C154.388 490.073 155.79 488.709 158.86 486.814C160.073 486.018 160.982 485.487 161.665 485.032C162.688 484.426 162.953 484.085 162.953 483.213ZM157.799 491.362V491.399C157.799 492.802 158.595 493.522 159.694 493.522C160.528 493.522 161.324 493.029 162.044 492.309C162.726 491.627 162.953 491.096 162.953 490.149V486.283C162.953 485.828 162.877 485.714 162.688 485.714C162.498 485.714 162.309 485.79 161.816 486.093C161.02 486.624 160.262 487.23 159.618 487.875C158.557 488.86 157.799 489.997 157.799 491.362ZM173.934 475.065H173.896C172.911 475.065 172.001 474.269 172.001 472.828C172.001 471.426 172.835 470.554 173.934 470.554C174.995 470.554 175.829 471.388 175.829 472.791C175.829 474.269 174.995 475.065 173.934 475.065ZM172.267 492.12V482.114C172.267 480.901 172.001 480.598 170.826 480.408C170.372 480.333 170.182 480.219 170.182 479.954C170.182 479.613 170.523 479.461 171.395 479.196C172.608 478.855 173.669 478.286 174.465 477.831C174.844 477.604 175.071 477.452 175.223 477.452C175.45 477.452 175.526 477.604 175.526 478.021V479.802V492.006C175.526 493.294 175.564 493.863 176.852 494.09C177.535 494.242 177.8 494.318 177.8 494.697C177.8 495.038 177.648 495.152 177.194 495.152C176.398 495.152 175.564 495 173.896 495C172.077 495 171.281 495.152 170.561 495.152C170.258 495.152 169.993 495 169.993 494.697C169.993 494.318 170.258 494.204 170.751 494.09C172.115 493.901 172.267 493.636 172.267 492.12ZM181.407 492.195V472.449C181.407 471.35 181.255 471.123 180.232 471.009C179.588 470.858 179.36 470.82 179.36 470.479C179.36 470.175 179.588 470.062 180.118 469.91C181.634 469.493 182.733 469.114 183.453 468.735C183.946 468.508 184.211 468.356 184.401 468.356C184.628 468.356 184.704 468.546 184.704 469.114V492.461C184.704 493.598 185.007 493.825 186.296 494.09C186.713 494.204 187.092 494.28 187.092 494.659C187.092 495 186.826 495.152 186.485 495.152C185.993 495.152 185.386 495 183.112 495C180.952 495 180.308 495.152 179.777 495.152C179.512 495.152 179.133 495.038 179.133 494.659C179.133 494.318 179.55 494.128 179.891 494.09C181.255 493.939 181.407 493.484 181.407 492.195ZM189.599 501.329V501.291C189.599 500.344 190.13 499.851 191.077 499.775C191.722 499.7 192.29 499.7 192.669 499.472C192.972 499.321 193.389 498.449 193.73 497.539C194.072 496.63 194.375 495.682 194.375 495.19C194.375 494.394 194.185 493.939 193.693 492.461C192.518 489.088 191.191 485.335 189.637 481.091C189.031 479.271 188.652 478.892 188.083 478.855C187.591 478.779 187.287 478.703 187.287 478.248C187.287 477.945 187.591 477.831 188.008 477.831C188.955 477.831 190.054 477.945 191.267 477.945C192.366 477.945 193.427 477.831 193.996 477.831C194.451 477.831 194.678 477.983 194.678 478.324C194.678 478.665 194.261 478.665 193.617 478.817C193.048 478.93 192.707 479.196 192.707 479.726C192.707 480.219 192.935 480.863 193.389 482.341C194.223 484.843 195.853 489.921 196.156 489.921C196.459 489.921 198.203 484.312 198.885 482.19C199.34 480.56 199.453 480.181 199.453 479.802C199.453 479.158 198.961 478.968 198.089 478.855C197.786 478.779 197.331 478.779 197.331 478.4C197.331 477.983 197.596 477.831 197.937 477.831C198.354 477.831 199.226 477.945 200.287 477.945C200.894 477.945 201.462 477.831 202.182 477.831C202.523 477.831 202.751 477.945 202.751 478.362C202.751 478.665 202.447 478.741 202.068 478.817C201.386 478.968 200.969 479.688 200.287 481.508C198.392 486.889 196.687 491.703 195.171 496.327C194.564 498.297 194.147 499.7 193.806 500.95C193.276 502.845 193.01 503.338 191.57 503.338C189.978 503.338 189.599 502.845 189.599 501.329ZM213.829 492.006V482.455C213.829 481.015 213.488 480.712 212.465 480.674C212.048 480.636 211.858 480.598 211.858 480.295C211.858 479.878 212.123 479.764 212.73 479.613C213.526 479.347 214.625 478.93 215.534 478.172C215.989 477.718 216.217 477.452 216.52 477.452C216.747 477.452 216.861 477.642 216.861 478.059C216.899 478.551 216.899 479.196 216.899 479.878C216.899 480.408 216.899 480.787 217.05 480.787C217.354 480.787 217.619 479.954 218.187 479.158C218.756 478.362 219.59 477.49 220.916 477.49C222.356 477.49 223.266 478.589 223.266 480.219C223.266 481.583 222.66 482.607 221.447 482.607C220.461 482.607 220.12 481.962 219.969 481.242C219.817 480.636 219.703 480.029 219.249 480.029C218.529 480.029 218.036 480.787 217.657 481.621C217.24 482.531 217.126 483.44 217.126 484.198V491.665C217.126 493.37 217.24 493.939 218.566 494.09C219.476 494.242 219.931 494.318 219.931 494.697C219.931 495.076 219.666 495.152 219.021 495.152C218.491 495.152 217.808 495 215.497 495C213.602 495 212.957 495.152 212.427 495.152C211.972 495.152 211.669 495.038 211.669 494.697C211.669 494.28 212.01 494.204 212.616 494.09C213.677 493.977 213.829 493.673 213.829 492.006ZM227.897 475.065H227.859C226.874 475.065 225.964 474.269 225.964 472.828C225.964 471.426 226.798 470.554 227.897 470.554C228.958 470.554 229.792 471.388 229.792 472.791C229.792 474.269 228.958 475.065 227.897 475.065ZM226.23 492.12V482.114C226.23 480.901 225.964 480.598 224.789 480.408C224.335 480.333 224.145 480.219 224.145 479.954C224.145 479.613 224.486 479.461 225.358 479.196C226.571 478.855 227.632 478.286 228.428 477.831C228.807 477.604 229.034 477.452 229.186 477.452C229.413 477.452 229.489 477.604 229.489 478.021V479.802V492.006C229.489 493.294 229.527 493.863 230.816 494.09C231.498 494.242 231.763 494.318 231.763 494.697C231.763 495.038 231.611 495.152 231.157 495.152C230.361 495.152 229.527 495 227.859 495C226.04 495 225.244 495.152 224.524 495.152C224.221 495.152 223.956 495 223.956 494.697C223.956 494.318 224.221 494.204 224.714 494.09C226.078 493.901 226.23 493.636 226.23 492.12ZM238.212 480.181V491.324C238.212 492.802 238.629 493.446 239.539 493.446C240.259 493.446 240.714 492.953 241.017 492.499C241.358 492.044 241.585 491.589 241.889 491.589C242.116 491.589 242.268 491.703 242.268 491.968C242.268 492.536 241.244 495.493 238.288 495.493C237.189 495.493 236.355 495.19 235.787 494.583C235.18 493.901 234.953 492.991 234.953 491.551V479.878C234.953 479.461 234.763 479.309 234.498 479.271C234.233 479.234 233.892 479.234 233.588 479.234C233.247 479.234 232.944 479.196 232.944 478.779C232.944 478.513 233.172 478.248 233.664 477.793C234.839 476.884 235.825 475.86 237.113 473.586C237.454 472.942 237.568 472.715 237.833 472.715C238.099 472.715 238.212 472.866 238.212 473.511V477.111C238.212 477.68 238.402 477.907 238.97 477.907H241.017C241.661 477.907 241.813 478.059 241.813 478.589C241.813 479.196 241.661 479.385 240.941 479.385C240.297 479.385 239.615 479.347 238.97 479.347C238.364 479.347 238.212 479.499 238.212 480.181ZM248.097 479.196V490.111C248.097 492.044 249.007 493.37 251.091 493.37C252.19 493.37 253.251 492.915 254.009 492.082C254.464 491.551 254.73 490.945 254.73 490.111V480.674C254.73 479.499 254.616 479.082 253.63 478.968C252.872 478.855 252.493 478.892 252.493 478.362C252.493 478.021 252.759 477.831 253.251 477.831C253.858 477.831 254.578 477.907 255.222 477.907C255.942 477.907 256.625 477.831 257.383 477.831C257.762 477.831 257.989 477.945 257.989 478.703V480.105V491.248C257.989 492.461 258.216 492.878 259.05 492.915C259.77 492.991 259.998 493.067 259.998 493.408C259.96 493.711 259.694 493.825 258.823 494.09C257.345 494.621 256.17 495.076 255.563 495.379C255.336 495.455 255.184 495.493 255.033 495.493C254.919 495.493 254.843 495.341 254.843 495.038V493.37C254.843 492.953 254.73 492.84 254.578 492.84C254.426 492.84 254.237 492.953 254.009 493.143C253.214 493.825 251.773 495.303 249.424 495.303C248.135 495.303 246.96 494.962 246.126 494.166C245.255 493.332 244.8 492.157 244.8 490.604V480.371C244.8 479.385 244.572 479.044 243.663 478.968C243.018 478.892 242.715 478.779 242.715 478.362C242.715 478.097 242.905 477.831 243.435 477.831C244.155 477.831 244.951 477.907 245.671 477.907C246.202 477.907 246.998 477.831 247.453 477.831C248.021 477.831 248.097 478.21 248.097 479.196ZM270.62 483.213V481.015C270.62 479.234 270.203 478.513 269.029 478.513C267.209 478.513 266.376 479.878 265.769 481.735C265.504 482.531 265.049 483.175 264.481 483.554C264.064 483.857 263.533 484.085 262.965 484.085C262.244 484.085 261.979 483.782 261.979 483.099C261.979 480.901 265.239 477.452 269.938 477.452C271.34 477.452 272.44 477.642 273.084 478.21C273.728 478.703 273.88 479.423 273.88 480.598V491.437C273.88 492.385 274.183 493.067 274.941 493.067C275.547 493.067 275.888 492.726 276.078 492.385C276.23 492.044 276.381 491.665 276.609 491.665C276.836 491.665 276.912 491.854 276.912 492.309C276.912 493.143 275.623 495.379 273.425 495.379C271.833 495.379 271.378 494.09 271.075 493.332C270.961 493.029 270.848 492.802 270.658 492.802C270.355 492.802 269.749 493.522 268.801 494.204C267.929 494.886 266.755 495.493 265.239 495.493C263.457 495.493 262.055 494.28 262.055 492.082C262.055 490.073 263.457 488.709 266.527 486.814C267.74 486.018 268.65 485.487 269.332 485.032C270.355 484.426 270.62 484.085 270.62 483.213ZM265.466 491.362V491.399C265.466 492.802 266.262 493.522 267.361 493.522C268.195 493.522 268.991 493.029 269.711 492.309C270.393 491.627 270.62 491.096 270.62 490.149V486.283C270.62 485.828 270.545 485.714 270.355 485.714C270.166 485.714 269.976 485.79 269.483 486.093C268.687 486.624 267.929 487.23 267.285 487.875C266.224 488.86 265.466 489.997 265.466 491.362ZM279.858 492.195V472.449C279.858 471.35 279.706 471.123 278.683 471.009C278.039 470.858 277.811 470.82 277.811 470.479C277.811 470.175 278.039 470.062 278.569 469.91C280.085 469.493 281.184 469.114 281.904 468.735C282.397 468.508 282.662 468.356 282.852 468.356C283.079 468.356 283.155 468.546 283.155 469.114V492.461C283.155 493.598 283.458 493.825 284.747 494.09C285.164 494.204 285.543 494.28 285.543 494.659C285.543 495 285.278 495.152 284.936 495.152C284.444 495.152 283.837 495 281.563 495C279.403 495 278.759 495.152 278.228 495.152C277.963 495.152 277.584 495.038 277.584 494.659C277.584 494.318 278.001 494.128 278.342 494.09C279.706 493.939 279.858 493.484 279.858 492.195ZM287.065 482.303V482.266C287.065 479.082 289.832 477.452 293.091 477.452C294.304 477.452 295.668 477.68 296.388 478.059C296.578 478.172 296.654 478.438 296.692 478.968C296.73 479.309 296.73 479.726 296.73 480.295V481.28C296.692 481.887 296.616 482.228 296.275 482.228C295.782 482.228 295.706 481.508 295.1 480.219C294.645 479.234 294.001 478.476 292.788 478.476C291.31 478.476 290.135 479.499 290.135 480.901C290.135 482.72 291.954 483.592 293.849 484.691C295.706 485.79 297.639 487.117 297.639 489.846C297.639 493.522 294.683 495.493 291.12 495.493C289.983 495.493 288.884 495.303 288.126 495.038C287.861 494.962 287.596 494.886 287.406 494.735C287.217 494.621 287.065 494.431 287.027 493.673C286.989 493.143 286.989 492.423 286.989 491.437C286.989 489.921 287.103 489.504 287.482 489.504C288.013 489.504 288.05 490.111 288.619 491.703C289.187 493.181 290.059 494.431 291.613 494.431C293.319 494.431 294.531 493.294 294.531 491.589C294.531 489.353 292.75 488.367 291.007 487.306C289.112 486.245 287.065 485.032 287.065 482.303ZM311.692 475.065H311.654C310.668 475.065 309.759 474.269 309.759 472.828C309.759 471.426 310.593 470.554 311.692 470.554C312.753 470.554 313.587 471.388 313.587 472.791C313.587 474.269 312.753 475.065 311.692 475.065ZM310.024 492.12V482.114C310.024 480.901 309.759 480.598 308.584 480.408C308.129 480.333 307.94 480.219 307.94 479.954C307.94 479.613 308.281 479.461 309.152 479.196C310.365 478.855 311.426 478.286 312.222 477.831C312.601 477.604 312.829 477.452 312.98 477.452C313.208 477.452 313.284 477.604 313.284 478.021V479.802V492.006C313.284 493.294 313.321 493.863 314.61 494.09C315.292 494.242 315.558 494.318 315.558 494.697C315.558 495.038 315.406 495.152 314.951 495.152C314.155 495.152 313.321 495 311.654 495C309.835 495 309.039 495.152 308.319 495.152C308.015 495.152 307.75 495 307.75 494.697C307.75 494.318 308.015 494.204 308.508 494.09C309.873 493.901 310.024 493.636 310.024 492.12ZM318.899 491.968V482.114C318.899 480.825 318.747 480.674 317.8 480.56C317.118 480.484 316.89 480.446 316.89 480.143C316.89 479.764 317.269 479.688 318.065 479.423C319.43 478.93 320.491 478.324 321.059 477.869C321.4 477.604 321.59 477.452 321.779 477.452C322.007 477.452 322.083 477.755 322.083 478.097V479.613C322.083 480.143 322.121 480.257 322.234 480.257C322.575 480.257 323.182 479.613 324.016 478.968C324.887 478.324 326.062 477.642 327.464 477.642C328.753 477.642 329.966 478.059 330.838 478.968C331.633 479.802 332.088 481.015 332.088 482.607V492.271C332.088 493.598 332.467 494.015 333.339 494.128C334.021 494.204 334.324 494.318 334.324 494.697C334.324 495.038 334.059 495.152 333.642 495.152C333.187 495.152 332.202 495 330.421 495C328.715 495 328.109 495.152 327.502 495.152C327.085 495.152 326.896 495.038 326.896 494.659C326.896 494.394 327.161 494.242 327.54 494.166C328.488 493.977 328.829 493.673 328.829 492.612V482.986C328.829 482.076 328.639 481.28 328.185 480.674C327.654 479.992 326.858 479.613 325.911 479.613C324.925 479.613 323.978 479.992 323.258 480.636C322.575 481.28 322.196 482.038 322.196 482.948V492.612C322.196 493.598 322.386 493.977 323.295 494.166C324.167 494.318 324.395 494.318 324.395 494.659C324.395 495.038 324.129 495.152 323.826 495.152C323.371 495.152 322.727 495 320.491 495C318.558 495 318.103 495.152 317.497 495.152C317.042 495.152 316.777 495 316.777 494.659C316.777 494.318 317.08 494.128 317.459 494.09C318.71 493.977 318.899 493.484 318.899 491.968ZM357.702 482.948H350.501C350.046 482.948 349.97 483.061 349.97 483.592V492.157C349.97 493.446 350.273 493.825 351.183 493.939C351.676 494.052 352.206 494.128 352.206 494.621C352.206 494.962 352.017 495.152 351.448 495.152C350.69 495.152 350.084 495 348.265 495C346.256 495 345.498 495.152 344.626 495.152C344.209 495.152 343.944 495 343.944 494.507C343.944 494.204 344.209 494.052 344.664 493.977C346.218 493.749 346.332 493.37 346.332 492.006V473.965C346.332 472.601 346.067 472.449 345.309 472.298C344.399 472.033 344.058 472.146 344.058 471.691C344.058 471.35 344.247 471.161 344.854 471.161C345.574 471.161 347.014 471.312 348.189 471.312C349.402 471.312 350.539 471.161 351.373 471.161C351.979 471.161 352.206 471.312 352.206 471.729C352.206 472.26 351.789 472.26 351.107 472.374C350.311 472.449 349.97 472.753 349.97 473.852V481.129C349.97 481.583 350.046 481.697 350.501 481.697H357.702C358.157 481.697 358.232 481.583 358.232 481.015V474.079C358.232 472.753 357.929 472.449 357.058 472.298C356.375 472.184 355.921 472.146 355.921 471.767C355.921 471.312 356.262 471.161 356.792 471.161C357.626 471.161 358.536 471.312 360.09 471.312C362.06 471.312 362.743 471.161 363.576 471.161C363.993 471.161 364.221 471.312 364.221 471.654C364.221 472.146 363.69 472.298 362.932 472.374C362.098 472.449 361.833 472.791 361.833 473.662V492.082C361.833 493.332 362.06 493.787 362.818 493.939C363.463 494.204 364.145 494.166 364.145 494.659C364.145 494.962 363.993 495.152 363.425 495.152C362.667 495.152 361.606 495 360.014 495C358.384 495 357.74 495.152 356.982 495.152C356.224 495.152 355.996 495 355.996 494.545C355.996 494.204 356.3 494.128 357.058 493.939C358.043 493.787 358.232 493.408 358.232 492.195V483.554C358.232 483.061 358.157 482.948 357.702 482.948ZM377.423 485.601H370.109C369.313 485.601 369.085 485.828 369.085 486.51C369.085 490.414 370.905 493.522 373.823 493.522C375.604 493.522 376.665 492.688 377.272 491.513C377.613 490.831 377.765 490.376 378.03 490.376C378.257 490.376 378.409 490.49 378.409 490.907C378.409 491.399 378.068 492.195 377.727 492.764C376.817 494.394 375.036 495.493 372.8 495.493C368.29 495.493 365.561 491.778 365.561 486.814C365.561 480.598 369.123 477.452 372.913 477.452C376.249 477.452 378.485 479.878 378.485 483.592C378.485 485.449 378.409 485.601 377.423 485.601ZM369.199 483.554V483.592C369.199 484.236 369.313 484.426 370.601 484.426C371.322 484.426 372.004 484.388 372.572 484.312C373.747 484.161 374.657 483.895 374.998 483.592C375.377 483.327 375.566 482.91 375.566 482.038C375.566 480.067 374.581 478.551 372.838 478.551C370.639 478.551 369.199 481.129 369.199 483.554ZM382.417 492.195V472.449C382.417 471.35 382.266 471.123 381.242 471.009C380.598 470.858 380.371 470.82 380.371 470.479C380.371 470.175 380.598 470.062 381.129 469.91C382.645 469.493 383.744 469.114 384.464 468.735C384.957 468.508 385.222 468.356 385.411 468.356C385.639 468.356 385.715 468.546 385.715 469.114V492.461C385.715 493.598 386.018 493.825 387.306 494.09C387.723 494.204 388.102 494.28 388.102 494.659C388.102 495 387.837 495.152 387.496 495.152C387.003 495.152 386.397 495 384.123 495C381.963 495 381.318 495.152 380.788 495.152C380.522 495.152 380.143 495.038 380.143 494.659C380.143 494.318 380.56 494.128 380.901 494.09C382.266 493.939 382.417 493.484 382.417 492.195ZM389.625 482.303V482.266C389.625 479.082 392.391 477.452 395.651 477.452C396.863 477.452 398.228 477.68 398.948 478.059C399.137 478.172 399.213 478.438 399.251 478.968C399.289 479.309 399.289 479.726 399.289 480.295V481.28C399.251 481.887 399.175 482.228 398.834 482.228C398.342 482.228 398.266 481.508 397.659 480.219C397.205 479.234 396.56 478.476 395.347 478.476C393.869 478.476 392.694 479.499 392.694 480.901C392.694 482.72 394.514 483.592 396.409 484.691C398.266 485.79 400.199 487.117 400.199 489.846C400.199 493.522 397.242 495.493 393.68 495.493C392.543 495.493 391.444 495.303 390.686 495.038C390.42 494.962 390.155 494.886 389.966 494.735C389.776 494.621 389.625 494.431 389.587 493.673C389.549 493.143 389.549 492.423 389.549 491.437C389.549 489.921 389.662 489.504 390.041 489.504C390.572 489.504 390.61 490.111 391.178 491.703C391.747 493.181 392.619 494.431 394.173 494.431C395.878 494.431 397.091 493.294 397.091 491.589C397.091 489.353 395.31 488.367 393.566 487.306C391.671 486.245 389.625 485.032 389.625 482.303ZM405.665 475.065H405.627C404.641 475.065 403.732 474.269 403.732 472.828C403.732 471.426 404.565 470.554 405.665 470.554C406.726 470.554 407.56 471.388 407.56 472.791C407.56 474.269 406.726 475.065 405.665 475.065ZM403.997 492.12V482.114C403.997 480.901 403.732 480.598 402.557 480.408C402.102 480.333 401.912 480.219 401.912 479.954C401.912 479.613 402.254 479.461 403.125 479.196C404.338 478.855 405.399 478.286 406.195 477.831C406.574 477.604 406.802 477.452 406.953 477.452C407.181 477.452 407.256 477.604 407.256 478.021V479.802V492.006C407.256 493.294 407.294 493.863 408.583 494.09C409.265 494.242 409.53 494.318 409.53 494.697C409.53 495.038 409.379 495.152 408.924 495.152C408.128 495.152 407.294 495 405.627 495C403.807 495 403.012 495.152 402.291 495.152C401.988 495.152 401.723 495 401.723 494.697C401.723 494.318 401.988 494.204 402.481 494.09C403.845 493.901 403.997 493.636 403.997 492.12ZM412.872 491.968V482.114C412.872 480.825 412.72 480.674 411.773 480.56C411.09 480.484 410.863 480.446 410.863 480.143C410.863 479.764 411.242 479.688 412.038 479.423C413.402 478.93 414.464 478.324 415.032 477.869C415.373 477.604 415.563 477.452 415.752 477.452C415.98 477.452 416.055 477.755 416.055 478.097V479.613C416.055 480.143 416.093 480.257 416.207 480.257C416.548 480.257 417.154 479.613 417.988 478.968C418.86 478.324 420.035 477.642 421.437 477.642C422.726 477.642 423.939 478.059 424.81 478.968C425.606 479.802 426.061 481.015 426.061 482.607V492.271C426.061 493.598 426.44 494.015 427.312 494.128C427.994 494.204 428.297 494.318 428.297 494.697C428.297 495.038 428.032 495.152 427.615 495.152C427.16 495.152 426.175 495 424.393 495C422.688 495 422.081 495.152 421.475 495.152C421.058 495.152 420.869 495.038 420.869 494.659C420.869 494.394 421.134 494.242 421.513 494.166C422.46 493.977 422.802 493.673 422.802 492.612V482.986C422.802 482.076 422.612 481.28 422.157 480.674C421.627 479.992 420.831 479.613 419.883 479.613C418.898 479.613 417.95 479.992 417.23 480.636C416.548 481.28 416.169 482.038 416.169 482.948V492.612C416.169 493.598 416.359 493.977 417.268 494.166C418.14 494.318 418.367 494.318 418.367 494.659C418.367 495.038 418.102 495.152 417.799 495.152C417.344 495.152 416.7 495 414.464 495C412.531 495 412.076 495.152 411.469 495.152C411.015 495.152 410.749 495 410.749 494.659C410.749 494.318 411.053 494.128 411.432 494.09C412.682 493.977 412.872 493.484 412.872 491.968ZM431.415 492.688V472.298C431.415 471.35 431.149 471.123 430.24 471.009C429.558 470.858 429.368 470.82 429.368 470.479C429.368 470.175 429.558 470.1 430.05 469.948C431.187 469.607 432.514 469.19 433.537 468.697C433.954 468.508 434.219 468.356 434.409 468.356C434.636 468.356 434.674 468.508 434.674 469.038V484.653C434.674 485.525 434.75 485.677 434.901 485.677C435.091 485.677 435.356 485.449 435.735 485.032C436.834 483.744 438.085 482.417 439.222 481.053C439.639 480.484 439.904 480.105 439.904 479.764C439.904 479.234 439.601 478.968 438.578 478.855C438.161 478.817 437.744 478.703 437.744 478.286C437.744 477.869 438.009 477.831 438.616 477.831C439.336 477.831 440.397 477.945 441.344 477.945C442.633 477.945 443.391 477.831 444.263 477.831C444.793 477.831 444.983 477.907 444.983 478.248C444.983 478.589 444.68 478.703 444.111 478.855C443.277 479.006 442.481 479.613 441.648 480.295C440.776 481.015 439.942 481.811 439.146 482.645C438.767 483.061 438.54 483.289 438.54 483.554C438.54 483.744 438.729 484.047 438.995 484.502C440.132 486.359 441.572 489.088 443.164 491.968C444.263 493.749 444.604 494.015 445.097 494.09C445.741 494.242 446.044 494.318 446.044 494.697C446.044 495.038 445.855 495.152 445.4 495.152C444.68 495.152 443.656 495 442.444 495C441.269 495 440.207 495.152 439.563 495.152C439.26 495.152 439.07 495.076 439.07 494.735C439.033 494.394 439.336 494.28 439.677 494.204C439.98 494.128 440.283 494.015 440.283 493.636C440.245 493.408 439.98 492.84 439.601 492.195C438.767 490.566 437.668 488.671 436.872 487.42C436.455 486.7 436.19 486.245 436.001 486.245C435.887 486.245 434.674 487.155 434.674 488.102V492.499C434.674 493.825 435.205 494.052 435.773 494.128C436.228 494.204 436.796 494.28 436.796 494.697C436.796 495 436.569 495.152 436.304 495.152C435.546 495.152 434.143 495 433.082 495C431.907 495 430.657 495.152 429.937 495.152C429.595 495.152 429.368 495 429.368 494.659C429.368 494.318 429.671 494.204 430.278 494.09C431.339 493.977 431.415 493.484 431.415 492.688ZM450.19 475.065H450.152C449.166 475.065 448.257 474.269 448.257 472.828C448.257 471.426 449.091 470.554 450.19 470.554C451.251 470.554 452.085 471.388 452.085 472.791C452.085 474.269 451.251 475.065 450.19 475.065ZM448.522 492.12V482.114C448.522 480.901 448.257 480.598 447.082 480.408C446.627 480.333 446.438 480.219 446.438 479.954C446.438 479.613 446.779 479.461 447.65 479.196C448.863 478.855 449.924 478.286 450.72 477.831C451.099 477.604 451.327 477.452 451.478 477.452C451.706 477.452 451.781 477.604 451.781 478.021V479.802V492.006C451.781 493.294 451.819 493.863 453.108 494.09C453.79 494.242 454.055 494.318 454.055 494.697C454.055 495.038 453.904 495.152 453.449 495.152C452.653 495.152 451.819 495 450.152 495C448.333 495 447.537 495.152 446.817 495.152C446.513 495.152 446.248 495 446.248 494.697C446.248 494.318 446.513 494.204 447.006 494.09C448.37 493.901 448.522 493.636 448.522 492.12Z" fill="#044799"/>
</svg>
