<svg width="955" height="806" viewBox="0 0 955 806" fill="none" xmlns="http://www.w3.org/2000/svg">
<path d="M24.9759 790.609C23.7935 792.471 22.7549 793.434 22.5472 794.557C20.3101 804.911 3.11703 809.453 0.40065 796.853C-5.54343 776.917 56.438 703.368 67.9746 677.381C91.8149 636.112 142.995 633.271 185.242 637.605C419.65 660.286 331.655 541.712 459.182 437.634C458.942 437.136 458.718 436.622 458.479 436.125C423.437 442.593 388.252 414.985 397.28 377.793C397.679 361.87 385.328 346.942 377.658 333.491C377.099 333.571 376.54 333.667 375.964 333.747C374.942 360.489 350.686 379.479 329.211 357.343C327.293 355.497 326.99 352.817 323.714 353.218C327.261 378.804 276.673 374.053 291.341 350.216C297.125 341.003 309.03 337.921 311.778 326.669C300.928 327.584 292.859 333.282 281.994 332.576C265.28 332.19 257.946 318.514 266.702 304.196C271.496 296.363 279.245 292.479 287.299 288.996C289.983 287.824 293.498 287.615 294.968 283.137C245.163 270.954 342.409 212.847 352.747 246.057C343.975 253.891 344.998 275.432 358.867 275.047C362.303 270.552 347.666 267.005 352.763 256.09C356.582 248.626 398.255 243.168 408.433 241.932C404.774 251.178 415.208 250.44 418.116 256.074C410.383 262.864 401.45 266.475 391.128 266.78C388.62 266.86 385.568 266.058 385.12 271.066C400.508 273.859 412.683 267.438 424.22 258.209C429.285 261.483 434.063 264.565 439.592 268.144C433.36 274.95 427.719 281.098 421.887 287.455C435.341 301.227 451.272 312.206 465.909 324.726C467.267 325.818 470.303 326.235 471.821 325.481C522.553 304.614 558.026 233.425 513.701 189.235C477.062 150.486 431.762 136.441 379.544 149.684C351.038 147.517 369.237 103.166 421.552 116.023C426.617 117.628 428.007 113.455 422.83 111.144C417.158 109.956 410.782 108.961 405.03 109.217C392.726 113.423 321.972 84.4658 340.524 69.4736C352.683 56.552 397.184 93.8881 407.874 85.6055C395.395 72.9247 345.173 68.5908 350.031 47.6434C360.209 26.3589 403.368 59.2487 420.273 59.7945C420.529 59.1363 420.785 58.4782 421.04 57.8201C403.895 45.3159 379.783 44.2725 363.038 30.9818C354.217 21.2224 369.445 15.7488 377.546 17.5305C409.887 23.1005 439.991 38.2211 470.351 50.1956C524.678 75.83 585.781 98.3023 617.754 153.038C643.832 197.164 648.529 251.563 635.938 300.729C624.178 344.903 586.804 370.024 552.322 395.386C555.533 399.078 558.409 397.071 560.982 396.541C585.733 391.501 610.66 389.318 635.89 391.26C732.178 398.018 819.789 462.931 855.662 552.772C876.833 605.068 871.976 662.244 874.548 717.445C874.868 729.42 877.233 733.995 888.498 738.232C905.867 745.985 934.213 745.134 939.853 767.253C940.908 773.369 944.12 777.719 949.712 780.705C964.524 791.138 944.871 809.052 931.401 805.617C864.482 796.211 749.211 828.731 732.737 736.579C726.537 673.175 744.849 598.936 689.77 551.905C640.716 503.204 549.461 510.733 514.532 572.307C490.899 609.434 477.621 652.276 451.224 687.67C387.517 772.278 273.844 765.022 179.075 766.355C156.193 766.05 133.312 765.135 110.462 763.995C84.0173 763.208 44.9653 832.873 24.9759 790.673V790.609Z" fill="#044799"/>
<path d="M362.59 125.317C356.806 135.895 360.801 139.924 361.264 146.65C343.719 137.035 336.114 125.542 315.837 143.648C308.135 149.314 300.066 158.143 290.382 159.587C284.614 158.849 281.658 155.655 285.125 149.892C288.753 145.494 291.022 138.704 283.639 136.714C277.408 136.152 272.135 131.674 278.287 126.184C285.685 119.218 286.819 111.641 298.915 112.685C320.902 111.914 342.984 114.45 362.574 125.317H362.59Z" fill="#044799"/>
<path d="M285.237 110.999C291.309 99.4099 296.662 88.9442 302.351 78.6712C309.062 73.0691 320.263 77.6439 328.476 77.1623C329.93 77.2907 331.879 78.607 332.518 79.9232C343.288 97.1305 365.003 101.448 381.621 111.4C375.901 115.381 370.739 118.961 364.652 123.182C340.683 109.827 314.031 107.869 285.253 111.015L285.237 110.999Z" fill="#044799"/>
<path d="M330.489 25.5082C337.072 16.2143 338.271 1.88022 350.606 0.435571C376.46 -2.59819 404.135 10.6765 423.214 25.9737C403.544 20.1309 362.223 -4.02678 354.585 27.7715C346.979 27.0492 339.278 26.3268 330.489 25.5082Z" fill="#044799"/>
<path d="M396.513 151.497C385.184 170.133 337.136 150.679 319.783 145.96C343.208 117.853 356.806 166.907 396.513 151.497Z" fill="#044799"/>
<path d="M347.57 30.5805C343.496 45.7653 337.599 60.2279 330.601 75.6214C329.29 70.4046 342.729 34.8984 347.57 30.5805Z" fill="#044799"/>
<path d="M309.685 73.8236C316.716 57.9806 323.091 43.5984 329.467 29.2322C330.09 29.489 330.713 29.7619 331.336 30.0187C324.577 42.1216 320.742 67.3548 309.669 73.8236H309.685Z" fill="#044799"/>
<path d="M322.851 72.9407C328.316 58.3338 333.653 43.6786 340.38 28.0123C342.441 39.0558 329.546 61.3675 325.519 73.952C324.625 73.6149 323.73 73.2778 322.835 72.9568L322.851 72.9407Z" fill="#044799"/>
<path d="M316.955 72.3308C322.723 58.1572 328.492 43.9676 334.26 29.794C335.107 36.0862 322.1 69.281 318.265 72.9247L316.955 72.3308Z" fill="#044799"/>
<path d="M355.544 31.977C353.674 34.6255 352.092 36.8727 350.51 39.1039C350.233 33.6892 351.911 31.3135 355.544 31.977Z" fill="#044799"/>
<path d="M338.958 63.9679C340.412 59.65 339.693 55.7174 343.895 53.9196C345.876 60.26 345.605 60.9181 338.958 63.9679Z" fill="#044799"/>
<path d="M304.763 72.1863C306.233 69.6983 311.698 59.1845 313.168 56.7126C313.599 56.9373 314.015 57.162 314.446 57.3867C313.168 60.0352 307.879 70.7096 306.601 73.3581L304.763 72.2024V72.1863Z" fill="#044799"/>
<path d="M374.398 258.722C374.878 265.881 363.245 266.523 362.814 259.541C362.191 252.51 373.967 251.627 374.398 258.722Z" fill="#FFF5EA"/>
</svg>
