<svg width="358" height="116" viewBox="0 0 358 116" fill="none" xmlns="http://www.w3.org/2000/svg">
<path d="M19.4013 116C4.13704 116 0 105.815 0 58C0 9.49404 5.84892 0 19.6866 0C34.2376 0 37.804 10.875 37.804 39.3571C37.804 44.3631 37.5187 50.75 37.376 54.2024H23.681C23.8236 50.75 23.9663 45.0536 23.9663 40.0476C23.9663 21.4048 23.5383 18.6429 20.6852 18.6429C17.5468 18.6429 16.5482 22.0952 16.5482 58C16.5482 94.0774 17.1188 97.3571 20.5425 97.3571C23.253 97.3571 23.9663 94.25 23.9663 76.6429C23.9663 73.3631 23.8236 68.875 23.681 66.2857H37.5187C37.6613 68.875 37.804 72.8452 37.804 76.8155C37.804 105.988 33.0963 116 19.4013 116Z" fill="white"/>
<path d="M57.008 116C42.3144 116 36.7508 104.607 36.7508 57.4821C36.7508 12.7738 42.1717 0 57.008 0C71.8443 0 77.2652 12.7738 77.2652 57.4821C77.2652 104.607 71.7016 116 57.008 116ZM57.008 97.3571C59.7185 97.3571 60.7171 94.4226 60.7171 57.4821C60.7171 22.2679 59.7185 18.6429 57.008 18.6429C54.2975 18.6429 53.2989 22.2679 53.2989 57.4821C53.2989 94.4226 54.2975 97.3571 57.008 97.3571Z" fill="white"/>
<path d="M75.5712 114.792V1.20833H97.9682L107.384 81.4762H107.669L105.529 1.20833H120.08V114.792H100.679L88.5529 26.4107H88.2676L90.1221 114.792H75.5712Z" fill="white"/>
<path d="M129.389 114.792V19.8512H119.831V1.20833H157.645L155.496 19.8512H145.938V114.792H129.389Z" fill="white"/>
<path d="M171.278 114.792L170.137 91.8333H162.433L161.292 114.792H144.601L156.156 1.20833H179.267L191.107 114.792H171.278ZM163.147 76.9881H169.424L166.713 21.2321H166L163.147 76.9881Z" fill="white"/>
<path d="M204.375 116C189.111 116 184.974 105.815 184.974 58C184.974 9.49404 190.823 0.0575344 204.661 0.0575344C219.212 0.0575344 222.778 10.875 222.778 39.3571C222.778 44.3631 222.493 50.75 222.35 54.2024H208.655C208.798 50.75 208.94 45.0536 208.94 40.0476C208.94 21.4048 208.513 18.6429 205.659 18.6429C202.521 18.6429 201.522 22.0952 201.522 58C201.522 94.0774 202.093 97.3571 205.517 97.3571C208.227 97.3571 208.94 94.25 208.94 76.6429C208.94 73.3631 208.798 68.875 208.655 66.2857H222.493C222.635 68.875 222.778 72.8452 222.778 76.8155C222.778 105.988 218.07 116 204.375 116Z" fill="white"/>
<path d="M231.874 114.792V19.8512H220.889L204.661 0.0575344H257.98V19.8512H248.422V114.792H231.874Z" fill="white"/>
<path d="M292.168 115.77C277.956 115.77 269.395 109.741 269.395 83.7267V1.20594H289.257V84.4158C289.257 95.6139 291.312 96.8198 293.88 96.8198C296.448 96.8198 298.161 95.6139 298.161 84.4158V1.20594H314.77V83.7267C314.77 109.741 306.208 115.77 292.168 115.77Z" fill="white"/>
<path d="M334.542 115.77C315.707 115.77 311.769 104.4 311.769 74.4238H329.234C329.234 95.4416 330.09 98.8871 334.028 98.8871C337.453 98.8871 338.309 96.8198 338.309 85.105C338.309 77.697 337.624 74.7683 335.912 72.3564C334.371 70.2891 331.289 68.0495 328.036 65.6376C325.125 63.5703 320.673 60.4693 317.762 56.5069C314.68 52.5446 311.769 44.9644 311.769 32.5604C311.769 9.30298 319.817 0 334.542 0C352.692 0 356.459 8.61387 356.459 43.0693H339.508C339.508 19.4673 338.994 16.8832 335.912 16.8832C332.83 16.8832 331.631 19.4673 331.631 30.4931C331.631 39.6238 332.487 43.2416 334.2 45.3089C335.741 47.204 339.165 49.7881 342.932 52.3723C346.87 55.1287 350.98 58.402 353.206 62.0198C356.288 67.0158 358 73.5624 358 83.5545C358 107.501 351.322 115.77 334.542 115.77Z" fill="white"/>
</svg>
