<svg width="108" height="41" viewBox="0 0 108 41" fill="none" xmlns="http://www.w3.org/2000/svg">
<path d="M6.62461 41C1.4126 41 0 38.0785 0 24.3623C0 10.4481 1.99712 7.72464 6.72203 7.72464C11.6905 7.72464 12.9082 10.8442 12.9082 19.0145C12.9082 20.4505 12.8108 22.2826 12.7621 23.2729H8.08592C8.13463 22.2826 8.18334 20.6486 8.18334 19.2126C8.18334 13.8647 8.03721 13.0725 7.063 13.0725C5.99137 13.0725 5.6504 14.0628 5.6504 24.3623C5.6504 34.7114 5.84524 35.6522 7.01429 35.6522C7.93979 35.6522 8.18334 34.7609 8.18334 29.7101C8.18334 28.7693 8.13463 27.4819 8.08592 26.7391H12.8108C12.8595 27.4819 12.9082 28.6208 12.9082 29.7597C12.9082 38.128 11.3008 41 6.62461 41Z" fill="#FFF5EA"/>
<path d="M21.9181 40.6534L21.5285 34.0676H18.8981L18.5084 40.6534H12.8093L16.7548 8.07125H24.6459L28.6889 40.6534H21.9181ZM19.1416 29.8092H21.2849L20.3594 13.8152H20.1159L19.1416 29.8092Z" fill="#FFF5EA"/>
<path d="M29.4515 40.6534V8.07125H39.3884V13.4191H35.1019V22.9263H38.6091V27.2838H35.1019V40.6534H29.4515Z" fill="#FFF5EA"/>
<path d="M42.5706 6.93237L44.4216 0H49.049L45.9803 6.93237H42.5706ZM39.9889 40.6534V8.07125H49.9745V13.4191H45.6393V22.2331H49.2439V26.2935H45.6393V35.3056H50.2668V40.6534H39.9889Z" fill="#FFF5EA"/>
<path d="M56.1642 40.6534V8.07125H63.8117L67.0266 31.0966H67.124L66.3934 8.07125H71.3618V40.6534H64.7372L60.5968 15.3007H60.4994L61.1326 40.6534H56.1642Z" fill="#FFF5EA"/>
<path d="M79.168 41C74.1509 41 72.2512 37.7319 72.2512 24.2138C72.2512 11.3889 74.1022 7.72464 79.168 7.72464C84.2339 7.72464 86.0849 11.3889 86.0849 24.2138C86.0849 37.7319 84.1852 41 79.168 41ZM79.168 35.6522C80.0935 35.6522 80.4345 34.8104 80.4345 24.2138C80.4345 14.1123 80.0935 13.0725 79.168 13.0725C78.2425 13.0725 77.9016 14.1123 77.9016 24.2138C77.9016 34.8104 78.2425 35.6522 79.168 35.6522Z" fill="#FFF5EA"/>
<path d="M87.1626 40.6534V8.07125H92.813V40.6534H87.1626Z" fill="#FFF5EA"/>
<path d="M94.0688 40.6534V8.07125H100.742C106.636 8.07125 108 10.6957 108 17.628C108 22.2331 107.415 24.5109 105.077 25.3527V25.4022C107.269 26.0459 108 27.6304 108 30.3539V40.6534H102.35V30.0568C102.35 28.3732 101.814 27.878 100.596 27.878H99.7192V40.6534H94.0688ZM99.7192 24.0157H100.499C101.96 24.0157 102.35 23.471 102.35 19.163C102.35 14.1618 102.106 13.4191 100.596 13.4191H99.7192V24.0157Z" fill="#FFF5EA"/>
</svg>
