<svg width="209" height="177" viewBox="0 0 209 177" fill="none" xmlns="http://www.w3.org/2000/svg">
<g clip-path="url(#clip0_46_3318)">
<path d="M5.46593 173.62C5.20716 174.029 4.97986 174.24 4.9344 174.487C4.44483 176.76 0.682157 177.758 0.0876814 174.991C-1.21317 170.613 12.3514 154.461 14.8761 148.754C20.0935 139.692 31.2941 139.068 40.54 140.02C91.8397 145 72.5822 118.961 100.491 96.1053C100.439 95.996 100.39 95.8832 100.337 95.774C92.6684 97.1945 84.9682 91.1316 86.944 82.9642C87.0314 79.4674 84.3283 76.1892 82.6498 73.2352C82.5274 73.2528 82.405 73.274 82.2791 73.2916C82.0553 79.1642 76.747 83.3343 72.0471 78.4734C71.6275 78.068 71.5611 77.4793 70.8442 77.5674C71.6205 83.1862 60.5493 82.1429 63.7595 76.9083C65.0254 74.8849 67.6306 74.2081 68.232 71.7371C65.8576 71.938 64.0917 73.1894 61.7138 73.0343C58.056 72.9497 56.4509 69.9464 58.3672 66.8021C59.4163 65.0819 61.1123 64.2289 62.8748 63.464C63.4622 63.2066 64.2316 63.1608 64.5533 62.1773C53.6534 59.5019 74.9356 46.7414 77.1981 54.0346C75.2783 55.7548 75.5021 60.4854 78.5374 60.4008C79.2893 59.4138 76.0861 58.6347 77.2016 56.2377C78.0374 54.5986 87.1573 53.4001 89.3848 53.1287C88.5841 55.1591 90.8675 54.997 91.504 56.2342C89.8115 57.7253 87.8567 58.5184 85.5977 58.5854C85.0487 58.603 84.3808 58.4268 84.2829 59.5266C87.6504 60.1399 90.315 58.7299 92.8398 56.703C93.9483 57.4221 94.9939 58.0989 96.2038 58.885C94.84 60.3796 93.6056 61.7297 92.3292 63.1256C95.2737 66.15 98.7601 68.5611 101.963 71.3106C102.26 71.5503 102.925 71.6419 103.257 71.4763C114.36 66.8938 122.123 51.2605 112.423 41.5562C104.404 33.0469 94.4903 29.9625 83.0624 32.8706C76.8239 32.3948 80.8069 22.6552 92.2558 25.4787C93.3643 25.8312 93.6686 24.9147 92.5356 24.4071C91.2942 24.1463 89.8989 23.9277 88.64 23.9841C85.9474 24.9077 70.4631 18.5486 74.523 15.2563C77.1841 12.4187 86.923 20.6178 89.2625 18.7989C86.5314 16.0142 75.5406 15.0624 76.6036 10.4623C78.8312 5.78818 88.2763 13.0109 91.9761 13.1307C92.032 12.9862 92.088 12.8417 92.1439 12.6972C88.3917 9.95119 83.1149 9.72207 79.4501 6.80338C77.5198 4.66019 80.8524 3.45817 82.6253 3.84944C89.7031 5.07261 96.2912 8.39315 102.935 11.0228C114.825 16.6522 128.197 21.5872 135.194 33.6074C140.901 43.2975 141.929 55.2437 139.174 66.0407C136.6 75.7415 128.421 81.2581 120.875 86.8276C121.577 87.6383 122.207 87.1977 122.77 87.0814C128.187 85.9745 133.642 85.4951 139.163 85.9216C160.236 87.4057 179.409 101.661 187.26 121.39C191.893 132.874 190.83 145.43 191.393 157.553C191.463 160.182 191.981 161.187 194.446 162.118C198.247 163.82 204.451 163.633 205.685 168.491C205.916 169.834 206.619 170.789 207.843 171.445C211.084 173.736 206.783 177.67 203.835 176.916C189.19 174.85 163.964 181.992 160.358 161.755C159.001 147.831 163.009 131.528 150.955 121.2C140.219 110.505 120.249 112.158 112.604 125.68C107.432 133.833 104.526 143.241 98.7496 151.014C84.8074 169.594 59.9304 168.001 39.1902 168.293C34.1826 168.226 29.175 168.026 24.1744 167.775C18.387 167.603 9.84057 182.901 5.46593 173.634V173.62Z" fill="#FFF5EA"/>
<path d="M79.352 27.5197C78.0861 29.8427 78.9604 30.7274 79.0618 32.2044C75.2222 30.093 73.5576 27.5691 69.1201 31.5452C67.4346 32.7896 65.6686 34.7283 63.5495 35.0456C62.2871 34.8834 61.6402 34.1819 62.399 32.9165C63.1928 31.9506 63.6894 30.4595 62.0738 30.0225C60.71 29.8991 59.556 28.9156 60.9023 27.7101C62.5214 26.1802 62.7697 24.5164 65.4168 24.7456C70.2286 24.5764 75.0613 25.1333 79.3485 27.5197H79.352Z" fill="#FFF5EA"/>
<path d="M62.4238 24.3753C63.7527 21.8303 64.9241 19.532 66.169 17.276C67.6377 16.0458 70.0891 17.0504 71.8865 16.9447C72.2047 16.9729 72.6313 17.2619 72.7712 17.551C75.1281 21.3297 79.8804 22.278 83.5172 24.4634C82.2653 25.3376 81.1358 26.1237 79.8035 27.0508C74.5581 24.118 68.7253 23.688 62.4273 24.3788L62.4238 24.3753Z" fill="#FFF5EA"/>
<path d="M72.3262 5.60118C73.7669 3.56021 74.0292 0.412403 76.7288 0.095154C82.3868 -0.571068 88.4434 2.34409 92.6188 5.7034C88.3141 4.42031 79.271 -0.884791 77.5995 6.0982C75.935 5.93958 74.2495 5.78095 72.3262 5.60118Z" fill="#FFF5EA"/>
<path d="M86.7765 33.2688C84.2972 37.3613 73.782 33.089 69.9844 32.0527C75.1108 25.8804 78.0867 36.6528 86.7765 33.2688Z" fill="#FFF5EA"/>
<path d="M76.0653 6.71509C75.1736 10.0497 73.8833 13.2257 72.3516 16.6062C72.0649 15.4606 75.0058 7.66331 76.0653 6.71509Z" fill="#FFF5EA"/>
<path d="M67.773 16.2116C69.3117 12.7324 70.7069 9.57405 72.1022 6.41919C72.2386 6.47559 72.375 6.53551 72.5113 6.59191C71.0322 9.24975 70.1929 14.791 67.7695 16.2116H67.773Z" fill="#FFF5EA"/>
<path d="M70.6558 16.0176C71.8518 12.8098 73.0198 9.59151 74.492 6.15112C74.9431 8.57631 72.1211 13.476 71.2398 16.2396C71.044 16.1656 70.8482 16.0916 70.6523 16.0211L70.6558 16.0176Z" fill="#FFF5EA"/>
<path d="M69.3652 15.8837C70.6276 12.7711 71.89 9.65504 73.1524 6.54248C73.3377 7.92427 70.4912 15.2139 69.652 16.0141L69.3652 15.8837Z" fill="#FFF5EA"/>
<path d="M77.8091 7.0219C77.4 7.60352 77.0538 8.09702 76.7076 8.587C76.647 7.3979 77.0142 6.8762 77.8091 7.0219Z" fill="#FFF5EA"/>
<path d="M74.1797 14.0472C74.4979 13.099 74.3405 12.2354 75.2602 11.8406C75.6938 13.2329 75.6344 13.3775 74.1797 14.0472Z" fill="#FFF5EA"/>
<path d="M66.6973 15.8519C67.019 15.3056 68.2149 12.9967 68.5366 12.4539C68.6311 12.5032 68.722 12.5526 68.8164 12.6019C68.5366 13.1835 67.3792 15.5276 67.0994 16.1093L66.6973 15.8555V15.8519Z" fill="#FFF5EA"/>
<path d="M81.937 56.8158C82.0419 58.388 79.4961 58.529 79.4017 56.9956C79.2653 55.4517 81.8426 55.2578 81.937 56.8158Z" fill="#044799"/>
</g>
<defs>
<clipPath id="clip0_46_3318">
<rect width="209" height="177" fill="white"/>
</clipPath>
</defs>
</svg>
